<svg id="svg" version="1.1" xmlns="http://www.w3.org/2000/svg" xmlns:xlink="http://www.w3.org/1999/xlink" width="300" height="75.26627218934911" viewBox="0, 0, 400,75.26627218934911"><g id="svgg"><path id="path0" d="M44.333 22.250 C 44.333 22.453,44.065 22.500,42.917 22.500 C 41.769 22.500,41.500 22.547,41.500 22.750 C 41.500 22.944,41.278 23.000,40.500 23.000 C 39.944 23.000,39.500 23.074,39.500 23.167 C 39.500 23.258,39.235 23.333,38.911 23.333 C 38.542 23.333,38.287 23.426,38.227 23.583 C 38.164 23.747,37.905 23.833,37.477 23.833 C 37.049 23.833,36.790 23.920,36.727 24.083 C 36.674 24.221,36.449 24.333,36.227 24.333 C 36.005 24.333,35.780 24.446,35.727 24.583 C 35.672 24.727,35.423 24.833,35.144 24.833 C 34.864 24.833,34.615 24.940,34.560 25.083 C 34.507 25.223,34.259 25.333,34.000 25.333 C 33.741 25.333,33.493 25.444,33.440 25.583 C 33.387 25.721,33.229 25.833,33.089 25.833 C 32.948 25.833,32.833 25.908,32.833 26.000 C 32.833 26.092,32.687 26.167,32.508 26.167 C 32.330 26.167,32.123 26.262,32.050 26.378 C 31.977 26.494,31.599 26.737,31.210 26.919 C 30.822 27.101,30.503 27.344,30.502 27.458 C 30.501 27.573,30.396 27.667,30.268 27.667 C 30.140 27.667,29.992 27.779,29.940 27.917 C 29.887 28.054,29.691 28.167,29.505 28.167 C 29.315 28.167,29.167 28.276,29.167 28.417 C 29.167 28.554,29.086 28.667,28.987 28.667 C 28.752 28.667,26.833 30.585,26.833 30.820 C 26.833 30.919,26.721 31.000,26.583 31.000 C 26.446 31.000,26.333 31.113,26.333 31.250 C 26.333 31.387,26.221 31.500,26.083 31.500 C 25.946 31.500,25.833 31.604,25.833 31.732 C 25.833 31.860,25.721 32.008,25.583 32.060 C 25.446 32.113,25.333 32.309,25.333 32.495 C 25.333 32.685,25.224 32.833,25.083 32.833 C 24.946 32.833,24.833 32.938,24.833 33.066 C 24.833 33.193,24.721 33.341,24.583 33.394 C 24.224 33.531,24.219 37.286,24.578 37.760 C 24.713 37.938,24.825 38.367,24.828 38.714 C 24.831 39.116,24.924 39.378,25.083 39.440 C 25.238 39.499,25.333 39.753,25.333 40.106 C 25.333 40.460,25.428 40.714,25.583 40.773 C 25.726 40.828,25.833 41.076,25.833 41.351 C 25.833 41.669,25.919 41.833,26.083 41.833 C 26.236 41.833,26.333 41.989,26.333 42.232 C 26.333 42.452,26.446 42.674,26.583 42.727 C 26.721 42.780,26.833 42.938,26.833 43.078 C 26.833 43.218,26.908 43.333,27.000 43.333 C 27.092 43.333,27.167 43.486,27.167 43.672 C 27.167 43.858,27.279 44.054,27.417 44.106 C 27.554 44.159,27.667 44.307,27.667 44.434 C 27.667 44.562,27.779 44.667,27.917 44.667 C 28.054 44.667,28.167 44.779,28.167 44.917 C 28.167 45.054,28.279 45.167,28.417 45.167 C 28.554 45.167,28.667 45.270,28.667 45.397 C 28.667 45.697,29.970 47.000,30.270 47.000 C 30.396 47.000,30.500 47.112,30.500 47.250 C 30.500 47.387,30.613 47.500,30.750 47.500 C 30.887 47.500,31.000 47.612,31.000 47.750 C 31.000 47.887,31.113 48.000,31.250 48.000 C 31.387 48.000,31.500 48.112,31.500 48.250 C 31.500 48.387,31.576 48.500,31.670 48.500 C 31.763 48.500,32.137 48.688,32.500 48.917 C 32.863 49.146,33.312 49.333,33.497 49.333 C 33.685 49.333,33.833 49.444,33.833 49.583 C 33.833 49.750,34.000 49.833,34.333 49.833 C 34.667 49.833,34.833 49.917,34.833 50.083 C 34.833 50.240,34.991 50.333,35.255 50.333 C 35.487 50.333,35.720 50.446,35.773 50.583 C 35.836 50.746,36.095 50.833,36.518 50.833 C 36.983 50.833,37.167 50.904,37.167 51.083 C 37.167 51.268,37.360 51.333,37.903 51.333 C 38.344 51.333,38.667 51.417,38.708 51.542 C 38.823 51.888,47.375 51.935,47.660 51.591 C 47.794 51.430,48.149 51.333,48.609 51.333 C 49.108 51.333,49.375 51.253,49.440 51.083 C 49.502 50.920,49.762 50.833,50.184 50.833 C 50.650 50.833,50.833 50.763,50.833 50.583 C 50.833 50.417,51.000 50.333,51.333 50.333 C 51.667 50.333,51.833 50.250,51.833 50.083 C 51.833 49.917,52.000 49.833,52.333 49.833 C 52.667 49.833,52.833 49.750,52.833 49.583 C 52.833 49.428,52.991 49.333,53.250 49.333 C 53.479 49.333,53.667 49.258,53.667 49.167 C 53.667 49.075,53.779 49.000,53.917 49.000 C 54.054 49.000,54.167 48.887,54.167 48.750 C 54.167 48.594,54.325 48.500,54.589 48.500 C 54.821 48.500,55.054 48.387,55.106 48.250 C 55.159 48.112,55.307 48.000,55.434 48.000 C 55.562 48.000,55.667 47.887,55.667 47.750 C 55.667 47.612,55.779 47.500,55.917 47.500 C 56.054 47.500,56.167 47.387,56.167 47.250 C 56.167 47.112,56.242 47.000,56.333 47.000 C 56.425 47.000,56.500 46.887,56.500 46.750 C 56.500 46.612,56.612 46.500,56.750 46.500 C 56.887 46.500,57.000 46.425,57.000 46.333 C 57.000 46.242,57.112 46.167,57.250 46.167 C 57.387 46.167,57.500 46.054,57.500 45.917 C 57.500 45.779,57.612 45.667,57.750 45.667 C 57.887 45.667,58.000 45.554,58.000 45.417 C 58.000 45.279,58.112 45.167,58.250 45.167 C 58.387 45.167,58.500 45.096,58.500 45.009 C 58.500 44.922,58.688 44.648,58.917 44.401 C 59.146 44.154,59.333 43.820,59.333 43.660 C 59.333 43.500,59.446 43.326,59.583 43.273 C 59.721 43.220,59.833 42.987,59.833 42.755 C 59.833 42.491,59.927 42.333,60.083 42.333 C 60.240 42.333,60.333 42.175,60.333 41.911 C 60.333 41.679,60.446 41.446,60.583 41.394 C 60.721 41.341,60.833 41.126,60.833 40.917 C 60.833 40.707,60.946 40.492,61.083 40.440 C 61.221 40.387,61.336 40.173,61.339 39.964 C 61.342 39.754,61.454 39.438,61.589 39.260 C 61.723 39.082,61.833 38.613,61.833 38.218 C 61.833 37.823,61.908 37.500,62.000 37.500 C 62.107 37.500,62.167 36.000,62.167 33.333 C 62.167 30.667,62.107 29.167,62.000 29.167 C 61.908 29.167,61.833 28.752,61.833 28.245 C 61.833 27.579,61.764 27.296,61.583 27.227 C 61.444 27.174,61.333 26.926,61.333 26.669 C 61.333 26.415,61.221 26.114,61.083 26.000 C 60.946 25.886,60.833 25.577,60.833 25.313 C 60.833 24.998,60.748 24.833,60.583 24.833 C 60.431 24.833,60.333 24.678,60.333 24.434 C 60.333 24.215,60.221 23.992,60.083 23.940 C 59.946 23.887,59.833 23.729,59.833 23.589 C 59.833 23.448,59.721 23.333,59.583 23.333 C 59.428 23.333,59.333 23.176,59.333 22.917 C 59.333 22.523,59.283 22.500,58.417 22.500 C 57.713 22.500,57.500 22.442,57.500 22.250 C 57.500 22.032,56.657 22.000,50.917 22.000 C 45.176 22.000,44.333 22.032,44.333 22.250 M74.560 22.250 C 74.498 22.413,74.238 22.500,73.816 22.500 C 73.350 22.500,73.167 22.571,73.167 22.750 C 73.167 22.899,73.013 23.000,72.786 23.000 C 72.411 23.000,70.833 24.324,70.833 24.638 C 70.833 24.723,70.721 24.886,70.583 25.000 C 70.446 25.114,70.333 25.340,70.333 25.503 C 70.333 25.665,70.221 25.841,70.083 25.894 C 69.865 25.978,69.833 27.355,69.833 36.894 C 69.833 46.432,69.865 47.810,70.083 47.894 C 70.221 47.946,70.333 48.144,70.333 48.333 C 70.333 48.522,70.446 48.720,70.583 48.773 C 70.721 48.826,70.833 48.935,70.833 49.016 C 70.833 49.302,72.501 50.833,72.813 50.833 C 72.988 50.833,73.174 50.946,73.227 51.083 C 73.284 51.231,73.534 51.333,73.840 51.333 C 74.124 51.333,74.470 51.446,74.607 51.583 C 74.811 51.787,75.421 51.833,77.934 51.833 C 80.515 51.833,81.026 51.793,81.106 51.583 C 81.169 51.420,81.428 51.333,81.851 51.333 C 82.208 51.333,82.500 51.254,82.500 51.158 C 82.500 51.062,82.725 50.904,83.000 50.808 C 83.275 50.712,83.500 50.566,83.500 50.484 C 83.500 50.401,83.612 50.333,83.750 50.333 C 83.887 50.333,84.000 50.221,84.000 50.083 C 84.000 49.946,84.112 49.833,84.250 49.833 C 84.387 49.833,84.500 49.721,84.500 49.583 C 84.500 49.446,84.612 49.333,84.750 49.333 C 84.903 49.333,85.000 49.178,85.000 48.934 C 85.000 48.715,85.112 48.492,85.250 48.440 C 85.388 48.387,85.500 48.238,85.500 48.109 C 85.500 47.980,85.614 47.779,85.754 47.663 C 85.965 47.488,86.001 47.027,85.963 44.934 L 85.917 42.417 82.875 42.371 L 79.833 42.326 79.833 44.080 C 79.833 45.053,79.764 45.833,79.678 45.833 C 79.592 45.833,79.477 45.978,79.420 46.155 C 79.363 46.336,79.102 46.524,78.826 46.585 C 78.555 46.644,78.333 46.762,78.333 46.847 C 78.333 47.106,77.376 47.019,77.273 46.750 C 77.220 46.612,77.033 46.500,76.857 46.500 C 76.654 46.500,76.498 46.347,76.432 46.083 C 76.374 45.854,76.253 45.667,76.163 45.667 C 76.059 45.667,76.000 42.497,76.000 36.833 C 76.000 31.975,76.063 28.000,76.140 28.000 C 76.217 28.000,76.365 27.813,76.470 27.583 C 76.581 27.339,76.799 27.167,76.996 27.167 C 77.185 27.167,77.333 27.056,77.333 26.917 C 77.333 26.752,77.498 26.667,77.816 26.667 C 78.090 26.667,78.339 26.774,78.394 26.917 C 78.446 27.054,78.679 27.167,78.911 27.167 C 79.159 27.167,79.333 27.262,79.333 27.396 C 79.333 27.523,79.446 27.719,79.583 27.833 C 79.775 27.992,79.833 28.426,79.833 29.680 L 79.833 31.318 80.375 31.417 C 80.673 31.471,82.042 31.493,83.417 31.466 L 85.917 31.417 85.963 28.899 C 86.001 26.806,85.965 26.345,85.754 26.170 C 85.614 26.054,85.500 25.818,85.500 25.646 C 85.500 25.474,85.388 25.333,85.250 25.333 C 85.094 25.333,85.000 25.175,85.000 24.911 C 85.000 24.679,84.887 24.446,84.750 24.394 C 84.612 24.341,84.500 24.193,84.500 24.066 C 84.500 23.938,84.422 23.833,84.326 23.833 C 84.230 23.833,83.950 23.646,83.703 23.417 C 83.456 23.188,83.119 23.000,82.955 23.000 C 82.791 23.000,82.613 22.887,82.560 22.750 C 82.498 22.587,82.238 22.500,81.816 22.500 C 81.350 22.500,81.167 22.429,81.167 22.250 C 81.167 22.036,80.694 22.000,77.911 22.000 C 75.172 22.000,74.641 22.040,74.560 22.250 M86.833 24.255 C 86.833 25.217,86.892 25.533,87.083 25.606 C 87.266 25.677,87.333 25.965,87.333 26.684 C 87.333 27.446,87.389 27.667,87.583 27.667 C 87.780 27.667,87.833 27.899,87.833 28.755 C 87.833 29.569,87.896 29.868,88.083 29.940 C 88.263 30.009,88.333 30.289,88.333 30.934 C 88.333 31.622,88.392 31.833,88.583 31.833 C 88.782 31.833,88.833 32.074,88.833 33.000 C 88.833 33.667,88.905 34.167,89.000 34.167 C 89.092 34.167,89.167 34.582,89.167 35.089 C 89.167 35.754,89.236 36.037,89.417 36.106 C 89.603 36.178,89.667 36.475,89.667 37.273 C 89.667 38.071,89.730 38.368,89.917 38.440 C 90.095 38.508,90.167 38.787,90.167 39.414 C 90.167 39.992,90.252 40.364,90.417 40.500 C 90.587 40.642,90.667 41.020,90.667 41.692 C 90.667 42.414,90.733 42.703,90.917 42.773 C 91.096 42.842,91.167 43.121,91.167 43.756 C 91.167 44.322,91.257 44.733,91.417 44.893 C 91.579 45.055,91.667 45.468,91.667 46.071 C 91.667 46.582,91.742 47.000,91.833 47.000 C 91.925 47.000,92.000 47.398,92.000 47.885 C 92.000 48.405,92.101 48.903,92.245 49.093 C 92.386 49.280,92.492 49.789,92.495 50.297 C 92.498 50.922,92.572 51.205,92.750 51.273 C 92.888 51.326,93.000 51.548,93.000 51.768 L 93.000 52.167 96.333 52.167 L 99.667 52.167 99.667 51.268 C 99.667 50.623,99.737 50.342,99.917 50.273 C 100.094 50.205,100.168 49.922,100.172 49.297 C 100.175 48.789,100.281 48.280,100.422 48.093 C 100.557 47.914,100.667 47.416,100.667 46.978 C 100.667 46.543,100.742 46.140,100.833 46.083 C 100.925 46.027,101.000 45.572,101.000 45.073 C 101.000 44.379,101.058 44.167,101.250 44.167 C 101.447 44.167,101.500 43.935,101.500 43.078 C 101.500 42.264,101.563 41.965,101.750 41.894 C 101.929 41.825,102.000 41.546,102.000 40.917 C 102.000 40.287,102.071 40.008,102.250 39.940 C 102.427 39.872,102.500 39.596,102.500 38.993 C 102.500 38.460,102.593 38.050,102.750 37.893 C 102.915 37.728,103.000 37.313,103.000 36.673 C 103.000 35.964,103.067 35.676,103.250 35.606 C 103.426 35.539,103.500 35.264,103.500 34.672 C 103.500 34.211,103.575 33.833,103.667 33.833 C 103.759 33.833,103.833 33.395,103.833 32.851 C 103.833 32.132,103.900 31.843,104.083 31.773 C 104.270 31.701,104.333 31.402,104.333 30.589 C 104.333 29.732,104.387 29.500,104.583 29.500 C 104.775 29.500,104.833 29.289,104.833 28.601 C 104.833 27.956,104.904 27.675,105.083 27.606 C 105.263 27.537,105.333 27.257,105.333 26.609 C 105.333 26.011,105.417 25.638,105.583 25.500 C 105.761 25.352,105.833 24.962,105.833 24.146 L 105.833 23.000 102.750 23.000 L 99.667 23.000 99.667 23.429 C 99.667 23.664,99.554 23.970,99.417 24.107 C 99.242 24.281,99.167 24.708,99.167 25.517 C 99.167 26.394,99.106 26.701,98.917 26.773 C 98.724 26.847,98.667 27.167,98.667 28.167 C 98.667 29.166,98.609 29.486,98.417 29.560 C 98.225 29.634,98.167 29.948,98.167 30.902 C 98.167 31.587,98.092 32.193,98.000 32.250 C 97.908 32.307,97.833 32.911,97.833 33.593 C 97.833 34.584,97.783 34.833,97.583 34.833 C 97.381 34.833,97.333 35.102,97.333 36.250 C 97.333 37.398,97.286 37.667,97.083 37.667 C 96.881 37.667,96.833 37.935,96.833 39.083 L 96.833 40.500 96.333 40.500 L 95.833 40.500 95.833 39.083 C 95.833 37.935,95.786 37.667,95.583 37.667 C 95.381 37.667,95.333 37.398,95.333 36.250 C 95.333 35.102,95.286 34.833,95.083 34.833 C 94.882 34.833,94.833 34.575,94.833 33.510 C 94.833 32.782,94.758 32.140,94.667 32.083 C 94.575 32.027,94.500 31.457,94.500 30.818 C 94.500 29.939,94.439 29.633,94.250 29.560 C 94.057 29.486,94.000 29.164,94.000 28.144 C 94.000 27.123,93.943 26.801,93.750 26.727 C 93.557 26.653,93.500 26.331,93.500 25.310 C 93.500 24.290,93.443 23.968,93.250 23.894 C 93.112 23.841,93.000 23.618,93.000 23.399 L 93.000 23.000 89.917 23.000 L 86.833 23.000 86.833 24.255 M110.000 23.490 C 110.000 23.760,109.925 24.027,109.833 24.083 C 109.742 24.140,109.667 24.669,109.667 25.260 C 109.667 26.103,109.613 26.333,109.417 26.333 C 109.218 26.333,109.167 26.574,109.167 27.500 C 109.167 28.426,109.115 28.667,108.917 28.667 C 108.718 28.667,108.667 28.907,108.667 29.833 C 108.667 30.759,108.615 31.000,108.417 31.000 C 108.219 31.000,108.167 31.239,108.167 32.149 C 108.167 33.016,108.105 33.321,107.917 33.394 C 107.730 33.465,107.667 33.762,107.667 34.560 C 107.667 35.358,107.603 35.655,107.417 35.727 C 107.230 35.799,107.167 36.098,107.167 36.911 C 107.167 37.510,107.097 38.000,107.012 38.000 C 106.927 38.000,106.811 38.431,106.754 38.958 C 106.697 39.485,106.579 40.047,106.492 40.206 C 106.405 40.365,106.333 40.901,106.333 41.397 C 106.333 42.044,106.263 42.325,106.083 42.394 C 105.897 42.465,105.833 42.762,105.833 43.560 C 105.833 44.358,105.770 44.655,105.583 44.727 C 105.397 44.798,105.333 45.096,105.333 45.894 C 105.333 46.692,105.270 46.989,105.083 47.060 C 104.894 47.133,104.833 47.440,104.833 48.328 C 104.833 49.259,104.782 49.500,104.583 49.500 C 104.382 49.500,104.333 49.759,104.333 50.833 L 104.333 52.167 107.167 52.167 L 110.000 52.167 110.000 51.000 C 110.000 50.074,110.052 49.833,110.250 49.833 C 110.453 49.833,110.500 49.563,110.500 48.405 C 110.500 47.357,110.567 46.910,110.750 46.726 C 110.888 46.589,111.000 46.292,111.000 46.066 L 111.000 45.657 113.125 45.703 L 115.250 45.750 115.298 47.292 C 115.324 48.140,115.410 48.833,115.489 48.833 C 115.568 48.833,115.659 49.459,115.691 50.225 C 115.776 52.234,115.660 52.167,119.020 52.167 L 121.833 52.167 121.833 50.833 C 121.833 50.056,121.764 49.500,121.667 49.500 C 121.575 49.500,121.500 49.068,121.500 48.537 C 121.500 47.993,121.401 47.431,121.272 47.245 C 121.146 47.065,121.009 46.433,120.967 45.843 C 120.924 45.233,120.806 44.741,120.695 44.704 C 120.576 44.664,120.500 44.263,120.500 43.673 C 120.500 43.018,120.420 42.641,120.250 42.500 C 120.085 42.363,120.000 41.991,120.000 41.408 C 120.000 40.844,119.909 40.433,119.750 40.274 C 119.587 40.111,119.500 39.698,119.500 39.090 C 119.500 38.414,119.431 38.130,119.250 38.060 C 119.061 37.988,119.000 37.683,119.000 36.816 C 119.000 35.905,118.948 35.667,118.750 35.667 C 118.552 35.667,118.500 35.426,118.500 34.500 C 118.500 33.833,118.429 33.333,118.333 33.333 C 118.241 33.333,118.167 32.893,118.167 32.345 C 118.167 31.689,118.083 31.273,117.917 31.107 C 117.749 30.940,117.667 30.522,117.667 29.840 C 117.667 29.090,117.601 28.798,117.417 28.727 C 117.230 28.655,117.167 28.358,117.167 27.560 C 117.167 26.762,117.103 26.465,116.917 26.394 C 116.734 26.324,116.667 26.036,116.667 25.327 C 116.667 24.687,116.582 24.272,116.417 24.107 C 116.279 23.970,116.167 23.664,116.167 23.429 L 116.167 23.000 113.083 23.000 L 110.000 23.000 110.000 23.490 M119.000 25.333 L 119.000 27.667 121.667 27.667 L 124.333 27.667 124.333 39.917 L 124.333 52.167 127.167 52.167 L 130.000 52.167 130.000 39.917 L 130.000 27.667 132.583 27.667 L 135.167 27.667 135.167 25.333 L 135.167 23.000 127.083 23.000 L 119.000 23.000 119.000 25.333 M45.833 27.417 C 45.947 27.554,46.259 27.667,46.526 27.667 C 46.803 27.667,47.052 27.774,47.106 27.917 C 47.159 28.054,47.269 28.167,47.351 28.167 C 47.433 28.167,47.639 28.298,47.808 28.458 C 47.978 28.619,48.259 28.874,48.433 29.025 C 48.902 29.432,49.500 30.173,49.500 30.347 C 49.500 30.431,49.612 30.500,49.750 30.500 C 49.902 30.500,50.000 30.655,50.000 30.896 C 50.000 31.114,50.112 31.386,50.250 31.500 C 50.445 31.662,50.500 32.122,50.500 33.609 C 50.500 35.145,50.452 35.529,50.250 35.606 C 50.107 35.661,50.000 35.910,50.000 36.184 C 50.000 36.502,49.915 36.667,49.750 36.667 C 49.612 36.667,49.500 36.737,49.500 36.823 C 49.500 37.077,48.135 38.500,47.891 38.500 C 47.768 38.500,47.667 38.612,47.667 38.750 C 47.667 38.887,47.562 39.000,47.434 39.000 C 47.307 39.000,47.159 39.112,47.106 39.250 C 47.047 39.405,46.793 39.500,46.440 39.500 C 46.086 39.500,45.832 39.595,45.773 39.750 C 45.695 39.954,45.284 40.000,43.523 40.000 C 41.762 40.000,41.351 39.954,41.273 39.750 C 41.217 39.603,40.967 39.500,40.667 39.500 C 40.367 39.500,40.117 39.397,40.060 39.250 C 40.008 39.112,39.860 39.000,39.732 39.000 C 39.604 39.000,39.500 38.887,39.500 38.750 C 39.500 38.612,39.404 38.500,39.287 38.500 C 39.022 38.500,38.000 37.581,38.000 37.343 C 38.000 37.246,37.925 37.167,37.833 37.167 C 37.742 37.167,37.667 37.054,37.667 36.917 C 37.667 36.779,37.554 36.667,37.417 36.667 C 37.250 36.667,37.167 36.500,37.167 36.167 C 37.167 35.833,37.083 35.667,36.917 35.667 C 36.708 35.667,36.667 35.326,36.667 33.601 C 36.667 31.919,36.713 31.518,36.917 31.440 C 37.054 31.387,37.167 31.154,37.167 30.922 C 37.167 30.658,37.260 30.500,37.417 30.500 C 37.554 30.500,37.667 30.387,37.667 30.250 C 37.667 30.113,37.742 30.000,37.833 30.000 C 37.925 30.000,38.000 29.921,38.000 29.825 C 38.000 29.579,39.547 28.167,39.817 28.167 C 39.898 28.167,40.008 28.054,40.060 27.917 C 40.113 27.779,40.343 27.667,40.572 27.667 C 40.800 27.667,41.084 27.557,41.202 27.423 C 41.519 27.063,45.536 27.058,45.833 27.417 M167.000 32.162 L 167.000 34.658 164.542 34.712 L 162.083 34.765 164.708 34.784 L 167.333 34.803 167.333 32.235 C 167.333 30.634,167.271 29.667,167.167 29.667 C 167.063 29.667,167.000 30.610,167.000 32.162 M170.964 34.790 C 171.448 34.824,172.198 34.823,172.631 34.789 C 173.063 34.755,172.667 34.727,171.750 34.728 C 170.833 34.728,170.480 34.756,170.964 34.790 M112.859 36.951 C 112.898 37.907,112.988 38.413,113.126 38.459 C 113.265 38.505,113.333 38.908,113.333 39.681 L 113.333 40.833 112.417 40.833 L 111.500 40.833 111.500 39.684 C 111.500 38.817,111.561 38.512,111.750 38.440 C 111.944 38.365,112.000 38.041,112.000 37.005 C 112.000 36.224,112.069 35.667,112.167 35.667 C 112.258 35.667,112.333 35.545,112.333 35.396 C 112.333 34.310,112.808 35.714,112.859 36.951 M167.000 40.333 C 167.000 42.111,167.062 43.167,167.167 43.167 C 167.271 43.167,167.333 42.111,167.333 40.333 C 167.333 38.556,167.271 37.500,167.167 37.500 C 167.062 37.500,167.000 38.556,167.000 40.333 " stroke="none" fill="#040404" fill-rule="evenodd"></path><path id="path1" d="M205.039 21.132 C 204.832 21.164,204.705 21.260,204.757 21.345 C 204.810 21.431,204.554 21.500,204.185 21.500 C 203.765 21.500,203.465 21.593,203.377 21.749 C 203.301 21.886,203.040 22.014,202.798 22.034 C 202.555 22.054,202.398 22.136,202.447 22.215 C 202.496 22.295,202.372 22.475,202.171 22.616 C 201.844 22.845,201.810 22.998,201.852 24.061 C 201.879 24.758,201.816 25.401,201.699 25.614 C 201.360 26.234,201.423 32.833,201.768 32.833 C 201.937 32.833,202.000 32.925,201.940 33.083 C 201.884 33.227,201.937 33.333,202.063 33.333 C 202.482 33.333,202.848 33.938,202.806 34.562 C 202.784 34.895,202.687 35.168,202.591 35.169 C 202.215 35.173,201.000 36.490,201.000 36.892 C 201.000 37.115,200.901 37.336,200.779 37.382 C 200.611 37.447,200.548 38.110,200.517 40.175 C 200.488 42.059,200.409 42.989,200.257 43.233 C 199.559 44.350,199.986 50.833,200.758 50.833 C 200.871 50.833,201.001 50.927,201.046 51.042 C 201.091 51.156,201.587 51.394,202.147 51.570 C 202.708 51.745,203.167 51.956,203.167 52.037 C 203.167 52.118,203.689 52.169,204.328 52.150 C 204.980 52.131,205.447 52.050,205.394 51.964 C 205.342 51.880,205.458 51.769,205.652 51.719 C 205.853 51.666,206.050 51.439,206.111 51.188 C 206.170 50.947,206.281 50.708,206.358 50.658 C 206.582 50.509,206.643 49.206,206.655 44.365 C 206.663 41.376,206.724 39.849,206.833 39.917 C 206.931 39.977,207.000 39.807,207.000 39.510 C 207.000 39.185,207.084 39.000,207.232 39.000 C 207.360 39.000,207.508 38.887,207.560 38.750 C 207.615 38.607,207.864 38.500,208.144 38.500 C 208.423 38.500,208.672 38.393,208.727 38.250 C 208.780 38.112,209.004 38.000,209.224 38.000 C 209.445 38.000,209.719 37.887,209.833 37.750 C 209.970 37.586,210.342 37.500,210.919 37.500 C 211.546 37.500,211.825 37.572,211.894 37.750 C 211.946 37.887,212.170 38.000,212.391 38.000 C 212.612 38.000,212.886 38.112,213.000 38.250 C 213.114 38.387,213.343 38.500,213.509 38.500 C 213.674 38.500,213.922 38.612,214.060 38.750 C 214.197 38.887,214.371 39.000,214.446 39.001 C 215.009 39.003,215.167 40.398,215.167 45.365 C 215.167 49.538,215.206 50.349,215.417 50.560 C 215.554 50.697,215.667 50.948,215.667 51.118 C 215.667 51.869,217.898 52.569,218.555 52.023 C 218.677 51.923,218.932 51.816,219.122 51.787 C 219.312 51.758,219.574 51.646,219.705 51.537 C 219.836 51.429,220.091 51.317,220.273 51.290 C 220.455 51.262,220.711 51.145,220.843 51.031 C 220.975 50.916,221.233 50.717,221.417 50.590 C 221.789 50.330,221.876 44.280,221.520 43.348 C 221.430 43.111,221.324 41.751,221.285 40.326 C 221.245 38.840,221.133 37.583,221.024 37.378 C 220.919 37.182,220.833 36.904,220.833 36.761 C 220.833 36.353,220.105 35.735,219.500 35.631 C 218.764 35.504,218.910 33.333,219.655 33.333 C 219.753 33.333,219.833 33.221,219.833 33.083 C 219.833 32.946,219.948 32.833,220.088 32.833 C 220.450 32.833,220.439 26.035,220.077 25.557 C 219.928 25.360,219.841 24.801,219.836 24.000 C 219.827 22.681,219.459 22.000,218.756 22.000 C 218.602 22.000,218.364 21.887,218.226 21.750 C 218.089 21.613,217.763 21.500,217.502 21.500 C 217.241 21.500,217.000 21.417,216.966 21.316 C 216.736 20.624,214.667 21.415,214.667 22.196 C 214.667 22.363,214.586 22.481,214.487 22.458 C 214.368 22.431,214.297 23.020,214.278 24.193 C 214.263 25.169,214.298 25.939,214.356 25.903 C 214.557 25.778,214.662 26.588,214.664 28.279 C 214.667 30.155,214.050 31.314,213.238 30.958 C 213.186 30.935,213.070 31.048,212.980 31.208 C 212.890 31.369,212.652 31.502,212.450 31.505 C 212.248 31.508,211.938 31.621,211.760 31.755 C 211.582 31.890,211.296 32.000,211.125 32.000 C 210.940 32.000,210.860 32.075,210.927 32.184 C 210.990 32.285,210.848 32.241,210.611 32.086 C 210.375 31.931,210.111 31.848,210.025 31.901 C 209.939 31.955,209.825 31.886,209.773 31.749 C 209.720 31.612,209.495 31.500,209.273 31.500 C 209.051 31.500,208.826 31.387,208.773 31.250 C 208.720 31.113,208.539 31.000,208.370 31.000 C 208.201 31.000,207.854 30.783,207.600 30.518 L 207.138 30.035 207.230 28.059 C 207.281 26.972,207.369 25.388,207.427 24.537 C 207.485 23.687,207.476 22.862,207.406 22.704 C 207.337 22.546,207.288 22.375,207.296 22.323 C 207.393 21.757,205.942 20.991,205.039 21.132 M267.210 32.821 C 267.241 39.352,267.298 41.365,267.458 41.525 C 267.573 41.640,267.667 41.835,267.667 41.959 C 267.667 42.322,268.326 43.667,268.504 43.667 C 268.594 43.667,268.667 43.767,268.667 43.890 C 268.667 44.082,269.182 44.634,270.519 45.875 C 270.692 46.035,270.833 46.121,270.833 46.064 C 270.833 46.008,271.018 46.083,271.244 46.231 C 271.470 46.379,271.761 46.500,271.890 46.500 C 272.020 46.500,272.219 46.612,272.333 46.750 C 272.467 46.911,272.836 47.000,273.366 47.000 C 273.877 47.000,274.286 47.095,274.440 47.250 C 274.639 47.449,275.178 47.500,277.075 47.500 C 278.991 47.500,279.500 47.451,279.667 47.250 C 279.798 47.092,280.166 47.000,280.669 47.000 C 281.222 47.000,281.494 46.924,281.560 46.750 C 281.613 46.612,281.851 46.500,282.090 46.500 C 282.329 46.500,282.637 46.387,282.775 46.248 C 282.914 46.110,283.088 46.035,283.163 46.081 C 283.380 46.215,285.803 43.775,286.074 43.150 C 286.210 42.838,286.324 42.658,286.329 42.750 C 286.352 43.157,286.662 42.362,286.664 41.893 C 286.666 41.601,286.769 41.330,286.898 41.280 C 287.147 41.185,287.308 26.172,287.073 24.920 L 286.963 24.333 284.245 24.333 C 282.750 24.333,281.409 24.379,281.264 24.434 C 281.029 24.525,281.000 25.305,281.000 31.523 C 281.000 36.959,280.954 38.528,280.792 38.591 C 280.677 38.635,280.564 38.937,280.541 39.263 C 280.478 40.139,279.237 41.328,278.331 41.379 C 277.969 41.400,277.636 41.510,277.591 41.625 C 277.491 41.883,276.884 41.901,276.799 41.648 C 276.765 41.546,276.412 41.447,276.013 41.428 C 275.563 41.406,275.212 41.288,275.086 41.116 C 274.975 40.963,274.847 40.875,274.803 40.919 C 274.639 41.083,273.833 39.990,273.833 39.605 C 273.833 39.386,273.722 39.115,273.585 39.001 C 273.373 38.826,273.330 37.734,273.293 31.606 L 273.250 24.417 270.210 24.371 L 267.170 24.326 267.210 32.821 M239.874 36.125 L 239.917 47.417 242.917 47.417 L 245.917 47.417 245.961 42.958 L 246.005 38.500 250.253 38.500 L 254.500 38.500 254.500 43.000 L 254.500 47.500 257.481 47.500 C 260.430 47.500,260.462 47.496,260.563 47.125 C 260.715 46.565,260.677 25.284,260.524 25.038 C 260.423 24.876,259.701 24.836,257.488 24.871 L 254.583 24.917 254.539 29.125 L 254.494 33.333 250.247 33.333 L 246.000 33.333 245.998 29.458 C 245.995 24.255,246.393 24.833,242.813 24.833 L 239.831 24.833 239.874 36.125 M294.268 25.097 C 294.136 25.441,294.136 46.892,294.268 47.236 C 294.355 47.463,294.778 47.500,297.265 47.500 L 300.160 47.500 300.260 47.103 C 300.462 46.296,300.263 35.696,300.042 35.475 C 299.927 35.360,299.835 35.038,299.837 34.758 L 299.841 34.250 300.066 34.750 C 300.190 35.025,300.468 35.644,300.685 36.125 C 300.901 36.606,301.136 37.000,301.206 37.000 C 301.276 37.000,301.333 37.190,301.333 37.422 C 301.333 37.654,301.446 37.887,301.583 37.940 C 301.721 37.992,301.833 38.159,301.833 38.309 C 301.832 38.588,302.573 40.543,302.852 41.000 C 302.936 41.137,303.086 41.456,303.185 41.708 C 303.285 41.960,303.434 42.167,303.516 42.167 C 303.599 42.167,303.667 42.311,303.667 42.486 C 303.667 42.958,303.847 43.345,304.017 43.239 C 304.100 43.188,304.167 43.368,304.167 43.639 C 304.167 43.923,304.273 44.172,304.417 44.227 C 304.560 44.282,304.667 44.531,304.667 44.810 C 304.667 45.090,304.773 45.339,304.917 45.394 C 305.054 45.446,305.167 45.612,305.167 45.761 C 305.167 46.168,305.706 47.000,305.971 47.000 C 306.311 47.000,306.994 46.299,306.997 45.946 C 306.999 45.779,307.112 45.530,307.250 45.393 C 307.387 45.255,307.500 44.961,307.500 44.738 C 307.500 44.515,307.569 44.333,307.653 44.333 C 307.738 44.333,307.856 44.108,307.917 43.832 C 307.978 43.556,308.080 43.363,308.145 43.403 C 308.210 43.443,308.279 43.281,308.299 43.042 C 308.318 42.804,308.447 42.484,308.584 42.333 C 308.721 42.181,308.833 41.902,308.833 41.713 C 308.833 41.524,308.946 41.326,309.083 41.273 C 309.221 41.220,309.333 41.019,309.333 40.827 C 309.333 40.634,309.446 40.364,309.583 40.226 C 309.721 40.089,309.833 39.792,309.833 39.566 C 309.833 39.341,309.946 39.113,310.083 39.060 C 310.221 39.008,310.333 38.783,310.333 38.560 C 310.333 38.338,310.445 38.113,310.582 38.061 C 310.719 38.008,310.798 37.911,310.758 37.846 C 310.717 37.780,310.792 37.517,310.925 37.261 C 311.058 37.005,311.167 36.686,311.167 36.552 C 311.167 36.419,311.279 36.197,311.417 36.060 C 311.554 35.922,311.667 35.673,311.667 35.506 C 311.667 35.339,311.779 35.159,311.917 35.106 C 312.204 34.996,312.267 35.419,311.989 35.590 C 311.891 35.651,311.851 35.805,311.900 35.934 C 311.949 36.062,311.936 36.167,311.870 36.167 C 311.742 36.166,311.786 46.938,311.916 47.296 C 311.975 47.459,312.658 47.497,314.871 47.462 L 317.750 47.417 317.793 36.125 L 317.836 24.833 314.164 24.833 L 310.492 24.833 310.394 25.323 C 310.340 25.592,310.192 25.852,310.065 25.901 C 309.937 25.950,309.833 26.182,309.833 26.417 C 309.833 26.652,309.737 26.881,309.618 26.926 C 309.500 26.972,309.385 27.248,309.363 27.539 C 309.341 27.831,309.248 28.116,309.157 28.172 C 309.067 28.229,308.958 28.453,308.916 28.671 C 308.874 28.888,308.725 29.131,308.585 29.209 C 308.424 29.299,308.358 29.505,308.406 29.768 C 308.454 30.032,308.393 30.218,308.241 30.277 C 308.108 30.327,308.000 30.544,308.000 30.758 C 308.000 30.972,307.913 31.201,307.808 31.266 C 307.678 31.346,307.660 31.308,307.751 31.151 C 307.826 31.022,307.825 30.973,307.749 31.042 C 307.672 31.111,307.582 31.438,307.549 31.769 C 307.515 32.100,307.377 32.480,307.243 32.614 C 307.110 32.748,307.000 32.994,307.000 33.161 C 307.000 33.328,306.906 33.501,306.790 33.545 C 306.675 33.589,306.479 33.991,306.356 34.438 C 306.150 35.187,306.119 35.221,305.957 34.875 C 305.861 34.669,305.719 34.500,305.641 34.500 C 305.564 34.500,305.500 34.281,305.500 34.014 C 305.500 33.747,305.413 33.499,305.306 33.463 C 305.200 33.428,305.092 33.256,305.066 33.081 C 305.040 32.907,304.932 32.574,304.825 32.340 C 304.362 31.328,304.183 30.893,304.084 30.542 C 304.025 30.335,303.908 30.167,303.822 30.167 C 303.737 30.167,303.667 30.022,303.667 29.845 C 303.667 29.668,303.554 29.411,303.417 29.274 C 303.279 29.136,303.167 28.840,303.167 28.616 C 303.167 28.391,303.054 28.114,302.917 28.000 C 302.779 27.886,302.667 27.612,302.667 27.391 C 302.667 27.170,302.554 26.946,302.417 26.894 C 302.279 26.841,302.167 26.627,302.167 26.419 C 302.167 26.211,302.054 25.947,301.917 25.833 C 301.779 25.719,301.667 25.493,301.667 25.331 C 301.667 24.872,301.366 24.833,297.754 24.833 C 294.821 24.833,294.355 24.869,294.268 25.097 M330.214 25.059 C 330.233 25.787,330.144 26.339,330.021 26.263 C 329.942 26.214,329.835 26.478,329.786 26.850 C 329.736 27.222,329.565 27.621,329.406 27.737 C 329.211 27.880,329.145 28.090,329.202 28.390 C 329.252 28.652,329.195 28.908,329.060 29.019 C 328.935 29.123,328.833 29.429,328.833 29.699 C 328.833 29.969,328.721 30.303,328.583 30.440 C 328.446 30.578,328.333 30.902,328.333 31.161 C 328.333 31.419,328.226 31.672,328.094 31.723 C 327.959 31.775,327.832 32.091,327.802 32.449 C 327.774 32.798,327.675 33.071,327.583 33.056 C 327.492 33.041,327.397 33.303,327.373 33.639 C 327.350 33.975,327.237 34.325,327.123 34.417 C 327.010 34.508,326.910 34.715,326.903 34.875 C 326.865 35.679,326.820 35.845,326.667 35.750 C 326.575 35.693,326.496 35.670,326.492 35.698 C 326.487 35.727,326.441 36.087,326.390 36.500 C 326.338 36.912,326.230 37.275,326.148 37.306 C 326.067 37.336,326.000 37.663,326.000 38.032 C 326.000 38.559,325.947 38.682,325.750 38.606 C 325.551 38.530,325.500 38.662,325.500 39.255 C 325.500 39.806,325.435 40.000,325.250 40.000 C 325.071 40.000,325.000 40.183,325.000 40.646 C 325.000 41.017,324.894 41.381,324.750 41.500 C 324.612 41.614,324.500 41.929,324.500 42.199 C 324.500 42.469,324.387 42.803,324.250 42.940 C 324.112 43.078,324.000 43.364,324.000 43.576 C 324.000 43.788,323.888 44.177,323.751 44.439 C 323.614 44.702,323.502 45.085,323.501 45.292 C 323.500 45.498,323.428 45.667,323.341 45.667 C 323.127 45.667,322.941 46.718,323.079 47.152 C 323.186 47.489,323.291 47.500,326.395 47.500 L 329.601 47.500 329.643 46.795 C 329.666 46.407,329.793 45.970,329.926 45.823 C 330.058 45.677,330.167 45.334,330.167 45.062 C 330.167 44.189,330.268 44.167,334.200 44.167 L 337.833 44.167 337.833 44.819 C 337.833 45.178,337.902 45.497,337.986 45.528 C 338.070 45.558,338.164 45.846,338.196 46.167 C 338.325 47.494,338.380 47.513,342.018 47.462 L 345.250 47.417 345.302 46.691 C 345.336 46.215,345.267 45.870,345.101 45.687 C 344.962 45.533,344.831 45.136,344.808 44.805 C 344.780 44.389,344.700 44.228,344.550 44.286 C 344.394 44.346,344.333 44.177,344.333 43.679 C 344.333 43.220,344.250 42.957,344.083 42.894 C 343.929 42.834,343.833 42.581,343.833 42.232 C 343.833 41.921,343.754 41.667,343.657 41.667 C 343.560 41.667,343.527 41.592,343.583 41.500 C 343.640 41.408,343.607 41.333,343.510 41.333 C 343.413 41.333,343.333 41.150,343.333 40.927 C 343.333 40.703,343.258 40.473,343.167 40.417 C 343.075 40.360,343.000 40.110,343.000 39.861 C 343.000 39.611,342.897 39.260,342.771 39.079 C 342.646 38.898,342.490 38.506,342.425 38.208 C 342.360 37.910,342.247 37.667,342.175 37.667 C 342.102 37.667,341.995 37.367,341.936 37.000 C 341.877 36.633,341.755 36.333,341.665 36.333 C 341.574 36.333,341.500 36.068,341.500 35.745 C 341.500 35.375,341.407 35.120,341.250 35.060 C 341.106 35.005,341.000 34.756,341.000 34.470 C 341.000 34.199,340.881 33.857,340.736 33.712 C 340.584 33.560,340.503 33.280,340.547 33.053 C 340.590 32.826,340.527 32.605,340.397 32.532 C 340.273 32.463,340.152 32.135,340.128 31.803 C 340.103 31.471,340.029 31.232,339.963 31.273 C 339.897 31.314,339.798 31.138,339.743 30.882 C 339.688 30.626,339.540 30.154,339.414 29.833 C 339.289 29.512,339.139 29.080,339.081 28.873 C 339.023 28.665,338.921 28.529,338.855 28.570 C 338.788 28.611,338.715 28.371,338.692 28.035 C 338.670 27.700,338.542 27.305,338.409 27.158 C 338.276 27.011,338.167 26.659,338.167 26.376 C 338.167 26.093,338.099 25.836,338.015 25.806 C 337.932 25.775,337.838 25.600,337.807 25.417 C 337.776 25.233,337.675 25.026,337.583 24.957 C 337.299 24.740,330.209 24.839,330.214 25.059 M350.000 36.167 L 350.000 47.500 353.083 47.500 L 356.167 47.500 356.167 41.417 C 356.167 35.479,356.241 34.632,356.667 35.750 C 356.754 35.979,356.902 36.167,356.996 36.167 C 357.090 36.167,357.167 36.319,357.167 36.505 C 357.167 36.691,357.279 36.887,357.417 36.940 C 357.554 36.992,357.667 37.215,357.667 37.434 C 357.667 37.654,357.734 37.833,357.817 37.833 C 357.899 37.833,358.115 38.115,358.296 38.458 C 359.052 39.891,359.255 40.254,359.343 40.333 C 359.582 40.549,360.141 41.907,360.050 42.053 C 359.994 42.144,360.024 42.171,360.117 42.114 C 360.209 42.057,360.369 42.196,360.472 42.422 C 360.575 42.648,360.736 42.833,360.830 42.833 C 360.923 42.833,361.000 43.021,361.000 43.250 C 361.000 43.509,361.094 43.667,361.250 43.667 C 361.387 43.667,361.500 43.812,361.500 43.990 C 361.500 44.168,361.575 44.360,361.667 44.417 C 361.758 44.473,361.833 44.657,361.833 44.825 C 361.833 44.993,361.946 45.174,362.083 45.227 C 362.221 45.280,362.333 45.434,362.333 45.570 C 362.333 45.706,362.444 45.879,362.579 45.954 C 362.714 46.030,362.847 46.240,362.876 46.421 C 363.035 47.435,363.282 47.500,366.954 47.500 L 370.333 47.500 370.333 36.163 L 370.333 24.826 367.375 24.871 L 364.417 24.917 364.373 31.042 C 364.341 35.535,364.278 37.167,364.137 37.167 C 364.031 37.167,363.990 37.121,364.046 37.065 C 364.101 37.010,363.964 36.767,363.740 36.525 C 363.516 36.284,363.333 35.952,363.333 35.788 C 363.333 35.624,363.221 35.446,363.083 35.394 C 362.946 35.341,362.833 35.118,362.833 34.899 C 362.833 34.679,362.760 34.500,362.671 34.500 C 362.478 34.500,361.979 33.588,362.090 33.438 C 362.132 33.380,362.118 33.370,362.058 33.414 C 361.931 33.509,361.500 32.731,361.500 32.406 C 361.500 32.283,361.398 32.123,361.273 32.050 C 361.148 31.977,360.754 31.369,360.398 30.699 C 360.041 30.030,359.652 29.299,359.533 29.074 C 359.413 28.850,359.244 28.667,359.158 28.667 C 359.071 28.667,359.000 28.521,359.000 28.343 C 359.000 28.165,358.929 27.976,358.843 27.923 C 358.757 27.869,358.513 27.471,358.301 27.038 C 358.090 26.605,357.860 26.225,357.792 26.194 C 357.723 26.164,357.667 26.067,357.667 25.979 C 357.667 25.892,357.503 25.598,357.302 25.327 L 356.937 24.833 353.469 24.833 L 350.000 24.833 350.000 36.167 M334.500 33.726 C 334.500 34.047,334.594 34.409,334.708 34.530 C 334.823 34.651,334.931 35.075,334.950 35.472 C 334.968 35.870,335.058 36.286,335.151 36.397 C 335.243 36.509,335.369 36.917,335.431 37.304 C 335.493 37.691,335.609 38.048,335.689 38.097 C 335.768 38.146,335.833 38.369,335.833 38.593 L 335.833 39.000 333.917 39.000 C 332.035 39.000,331.750 38.915,332.250 38.500 C 332.391 38.383,332.500 38.019,332.500 37.664 C 332.500 37.259,332.589 37.002,332.750 36.940 C 332.892 36.885,333.000 36.637,333.000 36.364 C 333.000 36.100,333.110 35.664,333.245 35.394 C 333.379 35.124,333.508 34.665,333.530 34.373 C 333.552 34.081,333.667 33.805,333.785 33.760 C 333.903 33.714,334.000 33.444,334.000 33.160 C 334.000 32.700,334.028 32.671,334.250 32.893 C 334.387 33.030,334.500 33.405,334.500 33.726 M172.667 34.770 C 171.222 34.894,170.798 35.006,170.969 35.218 C 171.056 35.327,171.109 35.885,171.085 36.458 L 171.041 37.500 173.437 37.500 L 175.833 37.500 175.833 36.260 C 175.833 35.535,175.757 34.972,175.649 34.906 C 175.420 34.764,173.667 34.684,172.667 34.770 " stroke="none" fill="#7b1c54" fill-rule="evenodd"></path><path id="path2" d="M205.500 21.064 C 205.500 21.100,205.721 21.161,205.991 21.201 C 206.261 21.241,206.444 21.212,206.398 21.137 C 206.315 21.003,205.500 20.937,205.500 21.064 M214.205 23.333 C 214.205 23.654,214.240 23.785,214.282 23.625 C 214.323 23.465,214.323 23.202,214.282 23.042 C 214.240 22.881,214.205 23.012,214.205 23.333 M167.415 29.417 C 167.303 29.943,167.239 35.500,167.345 35.500 C 167.397 35.500,167.397 35.856,167.345 36.292 C 167.293 36.727,167.272 38.568,167.299 40.382 L 167.347 43.680 168.715 43.632 L 170.083 43.583 170.129 40.542 L 170.174 37.500 170.577 37.500 C 171.102 37.500,171.364 35.891,170.948 35.218 C 170.879 35.106,170.952 34.993,171.123 34.949 C 171.284 34.906,171.135 34.863,170.792 34.853 L 170.167 34.833 170.167 32.000 C 170.167 29.852,170.116 29.163,169.958 29.153 C 168.103 29.030,167.484 29.094,167.415 29.417 M311.705 37.833 C 311.705 38.154,311.740 38.285,311.782 38.125 C 311.823 37.965,311.823 37.702,311.782 37.542 C 311.740 37.381,311.705 37.512,311.705 37.833 M311.739 42.833 C 311.739 45.171,311.763 46.127,311.791 44.958 C 311.820 43.790,311.820 41.877,311.791 40.708 C 311.763 39.540,311.739 40.496,311.739 42.833 M274.198 40.417 C 274.397 40.646,274.586 40.833,274.617 40.833 C 274.649 40.833,274.551 40.646,274.401 40.417 C 274.251 40.188,274.062 40.000,273.982 40.000 C 273.901 40.000,273.999 40.188,274.198 40.417 M221.705 45.000 C 221.705 45.321,221.740 45.452,221.782 45.292 C 221.823 45.131,221.823 44.869,221.782 44.708 C 221.740 44.548,221.705 44.679,221.705 45.000 " stroke="none" fill="#4c0c44" fill-rule="evenodd"></path><path id="path3" d="M168.128 29.121 C 168.428 29.158,168.878 29.157,169.128 29.119 C 169.378 29.081,169.133 29.051,168.583 29.052 C 168.033 29.053,167.828 29.084,168.128 29.121 M165.209 34.951 C 164.922 35.006,164.867 35.089,164.972 35.303 C 165.132 35.626,165.094 36.713,164.913 37.006 C 164.846 37.115,164.894 37.269,165.020 37.349 C 165.300 37.527,167.382 37.550,167.281 37.375 C 167.241 37.306,167.261 36.856,167.324 36.375 C 167.388 35.894,167.379 35.500,167.303 35.500 C 167.228 35.500,167.167 35.350,167.167 35.167 C 167.167 34.829,166.324 34.736,165.209 34.951 " stroke="none" fill="#3c0c3c" fill-rule="evenodd"></path><path id="path4" d="M161.736 35.059 C 161.689 35.183,161.672 35.765,161.700 36.351 L 161.750 37.417 163.500 37.459 C 164.574 37.486,165.161 37.445,165.020 37.353 C 164.894 37.271,164.846 37.115,164.913 37.006 C 165.094 36.713,165.132 35.626,164.972 35.303 C 164.867 35.089,164.922 35.006,165.209 34.951 C 165.415 34.911,164.737 34.869,163.703 34.856 C 162.259 34.839,161.803 34.886,161.736 35.059 " stroke="none" fill="#240434" fill-rule="evenodd"></path></g></svg>